<svg width="176" height="25" viewBox="0 0 176 25" fill="none" xmlns="http://www.w3.org/2000/svg">
<path d="M158.169 18.5176L158.931 15.205H169.697L170.426 18.5176H158.169ZM164.231 7.85094L160.587 16.3644L160.521 17.2257L157.308 24.4804H152.902L164.231 0L175.593 24.4804H171.154L168.007 17.4245L167.941 16.4638L164.231 7.85094Z" fill="#F0F5F4"/>
<path d="M133.1 10.3681L131.51 24.4799H127.468L130.648 0.13208L140.156 15.8671L149.696 0.13208L152.876 24.4799H148.835L147.245 10.3681L140.156 22.3267L133.1 10.3681Z" fill="#F0F5F4"/>
<path d="M106.342 12.8864C106.342 14.4765 106.685 15.8899 107.369 17.1266C108.054 18.3633 108.981 19.3461 110.152 20.0749C111.344 20.7815 112.703 21.1349 114.226 21.1349C115.772 21.1349 117.13 20.7815 118.301 20.0749C119.493 19.3461 120.421 18.3633 121.083 17.1266C121.768 15.8899 122.11 14.4765 122.11 12.8864C122.11 11.2964 121.779 9.88298 121.117 8.64627C120.454 7.38746 119.527 6.40472 118.334 5.69802C117.164 4.99132 115.794 4.63798 114.226 4.63798C112.703 4.63798 111.344 4.99132 110.152 5.69802C108.981 6.40472 108.054 7.38746 107.369 8.64627C106.685 9.88298 106.342 11.2964 106.342 12.8864ZM102.201 12.8864C102.201 11.1418 102.5 9.54068 103.096 8.08312C103.692 6.62556 104.531 5.36676 105.613 4.30671C106.718 3.22459 107.999 2.38538 109.456 1.78911C110.936 1.17075 112.526 0.861572 114.226 0.861572C115.971 0.861572 117.572 1.17075 119.03 1.78911C120.487 2.38538 121.757 3.22459 122.839 4.30671C123.943 5.36676 124.794 6.62556 125.39 8.08312C125.986 9.54068 126.284 11.1418 126.284 12.8864C126.284 14.609 125.986 16.2101 125.39 17.6898C124.794 19.1694 123.954 20.4503 122.872 21.5324C121.79 22.6145 120.52 23.4648 119.063 24.0831C117.605 24.6794 115.993 24.9776 114.226 24.9776C112.504 24.9776 110.903 24.6794 109.423 24.0831C107.965 23.4648 106.696 22.6145 105.613 21.5324C104.531 20.4503 103.692 19.1694 103.096 17.6898C102.5 16.2101 102.201 14.609 102.201 12.8864Z" fill="#F0F5F4"/>
<path d="M87.1919 16.9941C87.6998 17.8996 88.2409 18.6835 88.8151 19.3461C89.4114 20.0086 90.0629 20.5276 90.7696 20.903C91.4983 21.2784 92.2934 21.4662 93.1547 21.4662C94.2147 21.4662 95.076 21.1791 95.7385 20.6049C96.401 20.0307 96.7323 19.2798 96.7323 18.3523C96.7323 17.5131 96.5225 16.8395 96.1029 16.3316C95.7054 15.8016 95.1312 15.3599 94.3803 15.0065C93.6295 14.6311 92.7682 14.2667 91.7965 13.9134C91.2223 13.7146 90.5818 13.4496 89.8751 13.1183C89.1684 12.765 88.4949 12.3343 87.8544 11.8264C87.214 11.2964 86.684 10.6559 86.2644 9.90507C85.8448 9.13212 85.635 8.20458 85.635 7.12245C85.635 5.88574 85.9552 4.80361 86.5956 3.87607C87.2361 2.92645 88.0974 2.18663 89.1795 1.65661C90.2837 1.12658 91.5315 0.861572 92.9228 0.861572C94.292 0.861572 95.4845 1.11554 96.5004 1.62348C97.5163 2.10933 98.3776 2.72769 99.0843 3.47856C99.791 4.22942 100.332 5.01341 100.707 5.83053L97.5605 7.61935C97.2513 7.04516 96.8758 6.51514 96.4342 6.02928C95.9925 5.52135 95.4735 5.12383 94.8772 4.83673C94.303 4.52755 93.6295 4.37297 92.8565 4.37297C91.7744 4.37297 90.9794 4.62693 90.4714 5.13487C89.9635 5.62072 89.7095 6.19491 89.7095 6.85744C89.7095 7.45372 89.8862 7.99478 90.2395 8.48063C90.615 8.9444 91.1892 9.38609 91.9621 9.80569C92.7351 10.2253 93.7399 10.6559 94.9766 11.0976C95.6833 11.3405 96.379 11.6497 97.0636 12.0252C97.7703 12.4006 98.3997 12.8644 98.9518 13.4165C99.526 13.9686 99.9897 14.6311 100.343 15.404C100.696 16.1549 100.873 17.0383 100.873 18.0541C100.873 19.1363 100.652 20.108 100.211 20.9693C99.791 21.8306 99.2168 22.5593 98.488 23.1556C97.7592 23.7298 96.9311 24.1715 96.0035 24.4807C95.0981 24.8119 94.1484 24.9776 93.1547 24.9776C91.8075 24.9776 90.5487 24.7125 89.3783 24.1825C88.2299 23.6304 87.214 22.9016 86.3306 21.9962C85.4693 21.0907 84.7847 20.108 84.2768 19.0479L87.1919 16.9941Z" fill="#F0F5F4"/>
<path d="M67.842 1.2915H71.7509V24.4799H67.842V1.2915ZM70.1608 4.73664V1.2915H74.8316C76.5321 1.2915 78.0007 1.58964 79.2374 2.18592C80.4742 2.76011 81.4348 3.58826 82.1194 4.67039C82.8261 5.73044 83.1795 7.00028 83.1795 8.47992C83.1795 9.95957 82.8261 11.2405 82.1194 12.3226C81.4348 13.4047 80.4742 14.2439 79.2374 14.8402C78.0007 15.4144 76.5321 15.7015 74.8316 15.7015H70.1608V12.2563H74.8316C76.1788 12.2563 77.2609 11.9361 78.078 11.2957C78.8951 10.6552 79.3037 9.71664 79.3037 8.47992C79.3037 7.2432 78.8951 6.31567 78.078 5.69731C77.2609 5.05687 76.1788 4.73664 74.8316 4.73664H70.1608Z" fill="#F0F5F4"/>
<path d="M45.391 12.8864C45.391 14.4765 45.7333 15.8899 46.418 17.1266C47.1026 18.3633 48.0301 19.3461 49.2006 20.0749C50.3931 20.7815 51.7513 21.1349 53.2751 21.1349C54.821 21.1349 56.1792 20.7815 57.3497 20.0749C58.5422 19.3461 59.4697 18.3633 60.1323 17.1266C60.8169 15.8899 61.1592 14.4765 61.1592 12.8864C61.1592 11.2964 60.8279 9.88298 60.1654 8.64627C59.5029 7.38746 58.5753 6.40472 57.3828 5.69802C56.2123 4.99132 54.8431 4.63798 53.2751 4.63798C51.7513 4.63798 50.3931 4.99132 49.2006 5.69802C48.0301 6.40472 47.1026 7.38746 46.418 8.64627C45.7333 9.88298 45.391 11.2964 45.391 12.8864ZM41.2502 12.8864C41.2502 11.1418 41.5484 9.54068 42.1447 8.08312C42.7409 6.62556 43.5801 5.36676 44.6623 4.30671C45.7665 3.22459 47.0474 2.38538 48.5049 1.78911C49.9846 1.17075 51.5746 0.861572 53.2751 0.861572C55.0198 0.861572 56.6209 1.17075 58.0784 1.78911C59.536 2.38538 60.8058 3.22459 61.888 4.30671C62.9922 5.36676 63.8424 6.62556 64.4387 8.08312C65.035 9.54068 65.3331 11.1418 65.3331 12.8864C65.3331 14.609 65.035 16.2101 64.4387 17.6898C63.8424 19.1694 63.0032 20.4503 61.9211 21.5324C60.839 22.6145 59.5691 23.4648 58.1116 24.0831C56.654 24.6794 55.0418 24.9776 53.2751 24.9776C51.5525 24.9776 49.9514 24.6794 48.4718 24.0831C47.0142 23.4648 45.7444 22.6145 44.6623 21.5324C43.5801 20.4503 42.7409 19.1694 42.1447 17.6898C41.5484 16.2101 41.2502 14.609 41.2502 12.8864Z" fill="#F0F5F4"/>
<path d="M20.8067 13.8464V10.2356H37.3699V13.8464H20.8067ZM34.8191 1.2915H38.728V24.4799H34.8191V1.2915ZM19.2498 1.2915H23.1587V24.4799H19.2498V1.2915Z" fill="#F0F5F4"/>
<path d="M2.91512 16.9941C3.42306 17.8996 3.96412 18.6835 4.53831 19.3461C5.13458 20.0086 5.78607 20.5276 6.49276 20.903C7.22154 21.2784 8.01658 21.4662 8.87786 21.4662C9.93791 21.4662 10.7992 21.1791 11.4617 20.6049C12.1242 20.0307 12.4555 19.2798 12.4555 18.3523C12.4555 17.5131 12.2457 16.8395 11.8261 16.3316C11.4286 15.8016 10.8544 15.3599 10.1035 15.0065C9.35267 14.6311 8.49139 14.2667 7.51968 13.9134C6.94549 13.7146 6.30505 13.4496 5.59835 13.1183C4.89166 12.765 4.21809 12.3343 3.57765 11.8264C2.9372 11.2964 2.40718 10.6559 1.98758 9.90507C1.56798 9.13212 1.35818 8.20458 1.35818 7.12245C1.35818 5.88574 1.6784 4.80361 2.31884 3.87607C2.95929 2.92645 3.82057 2.18663 4.9027 1.65661C6.00691 1.12658 7.25467 0.861572 8.64598 0.861572C10.0152 0.861572 11.2077 1.11554 12.2236 1.62348C13.2395 2.10933 14.1008 2.72769 14.8075 3.47856C15.5142 4.22942 16.0552 5.01341 16.4307 5.83053L13.2837 7.61935C12.9745 7.04516 12.5991 6.51514 12.1574 6.02928C11.7157 5.52135 11.1967 5.12383 10.6004 4.83673C10.0262 4.52755 9.35267 4.37297 8.57972 4.37297C7.4976 4.37297 6.70256 4.62693 6.19463 5.13487C5.68669 5.62072 5.43272 6.19491 5.43272 6.85744C5.43272 7.45372 5.6094 7.99478 5.96274 8.48063C6.33817 8.9444 6.91236 9.38609 7.68531 9.80569C8.45826 10.2253 9.46309 10.6559 10.6998 11.0976C11.4065 11.3405 12.1022 11.6497 12.7868 12.0252C13.4935 12.4006 14.1229 12.8644 14.675 13.4165C15.2492 13.9686 15.7129 14.6311 16.0663 15.404C16.4196 16.1549 16.5963 17.0383 16.5963 18.0541C16.5963 19.1363 16.3755 20.108 15.9338 20.9693C15.5142 21.8306 14.94 22.5593 14.2112 23.1556C13.4824 23.7298 12.6543 24.1715 11.7267 24.4807C10.8213 24.8119 9.87165 24.9776 8.87786 24.9776C7.53072 24.9776 6.27192 24.7125 5.10146 24.1825C3.95308 23.6304 2.9372 22.9016 2.05383 21.9962C1.19255 21.0907 0.507937 20.108 0 19.0479L2.91512 16.9941Z" fill="#F0F5F4"/>
</svg>
